<mxfile host="Electron" modified="2024-01-11T17:41:40.375Z" agent="Mozilla/5.0 (Windows NT 10.0; Win64; x64) AppleWebKit/537.36 (KHTML, like Gecko) draw.io/22.0.2 Chrome/114.0.5735.289 Electron/25.8.4 Safari/537.36" etag="eSJLhfzmpjIbYPXG-zZ-" version="22.0.2" type="device">
  <diagram id="C5RBs43oDa-KdzZeNtuy" name="Page-1">
    <mxGraphModel dx="2554" dy="2179" grid="0" gridSize="10" guides="1" tooltips="1" connect="1" arrows="1" fold="1" page="1" pageScale="1" pageWidth="827" pageHeight="1169" math="0" shadow="0">
      <root>
        <mxCell id="WIyWlLk6GJQsqaUBKTNV-0" />
        <mxCell id="WIyWlLk6GJQsqaUBKTNV-1" parent="WIyWlLk6GJQsqaUBKTNV-0" />
        <mxCell id="zkfFHV4jXpPFQw0GAbJ--0" value="&lt;&lt;abstract&gt;&gt;&#xa;Product" style="swimlane;fontStyle=3;align=center;verticalAlign=top;childLayout=stackLayout;horizontal=1;startSize=40;horizontalStack=0;resizeParent=1;resizeLast=0;collapsible=1;marginBottom=0;rounded=0;shadow=0;strokeWidth=1;" parent="WIyWlLk6GJQsqaUBKTNV-1" vertex="1">
          <mxGeometry x="180" y="-160" width="450" height="364" as="geometry">
            <mxRectangle x="230" y="140" width="160" height="26" as="alternateBounds" />
          </mxGeometry>
        </mxCell>
        <mxCell id="zkfFHV4jXpPFQw0GAbJ--1" value="- productID:String&#xa;- productName:String&#xa;- numberOfItems:int&#xa;- price:double&#xa;- count:int&#xa;- productType:String" style="text;align=left;verticalAlign=top;spacingLeft=4;spacingRight=4;overflow=hidden;rotatable=0;points=[[0,0.5],[1,0.5]];portConstraint=eastwest;" parent="zkfFHV4jXpPFQw0GAbJ--0" vertex="1">
          <mxGeometry y="40" width="450" height="100" as="geometry" />
        </mxCell>
        <mxCell id="zkfFHV4jXpPFQw0GAbJ--4" value="" style="line;html=1;strokeWidth=1;align=left;verticalAlign=middle;spacingTop=-1;spacingLeft=3;spacingRight=3;rotatable=0;labelPosition=right;points=[];portConstraint=eastwest;" parent="zkfFHV4jXpPFQw0GAbJ--0" vertex="1">
          <mxGeometry y="140" width="450" height="34" as="geometry" />
        </mxCell>
        <mxCell id="zkfFHV4jXpPFQw0GAbJ--5" value="+ Product(String:productID, String:productName, int:numberOfItems, double:price)&#xa;+ setProductID(productID:String):void&#xa;+ setProductName(productName:String):void&#xa;+ setNumberOfItem(noOfItems:int):void&#xa;+ setPrice(price:double):void&#xa;+ setProductType(productType:String):void&#xa;+ getProductID():String&#xa;+ getProductName():String&#xa;+ getNumberOfItem():int&#xa;+ getPrice():double&#xa;+ getProductType():String" style="text;align=left;verticalAlign=top;spacingLeft=4;spacingRight=4;overflow=hidden;rotatable=0;points=[[0,0.5],[1,0.5]];portConstraint=eastwest;" parent="zkfFHV4jXpPFQw0GAbJ--0" vertex="1">
          <mxGeometry y="174" width="450" height="190" as="geometry" />
        </mxCell>
        <mxCell id="zkfFHV4jXpPFQw0GAbJ--6" value="Electronics" style="swimlane;fontStyle=1;align=center;verticalAlign=top;childLayout=stackLayout;horizontal=1;startSize=26;horizontalStack=0;resizeParent=1;resizeLast=0;collapsible=1;marginBottom=0;rounded=0;shadow=0;strokeWidth=1;" parent="WIyWlLk6GJQsqaUBKTNV-1" vertex="1">
          <mxGeometry x="60" y="360" width="300" height="220" as="geometry">
            <mxRectangle x="130" y="380" width="160" height="26" as="alternateBounds" />
          </mxGeometry>
        </mxCell>
        <mxCell id="zkfFHV4jXpPFQw0GAbJ--7" value="- brand:String&#xa;- warrantlyPeriod: int&#xa;" style="text;align=left;verticalAlign=top;spacingLeft=4;spacingRight=4;overflow=hidden;rotatable=0;points=[[0,0.5],[1,0.5]];portConstraint=eastwest;" parent="zkfFHV4jXpPFQw0GAbJ--6" vertex="1">
          <mxGeometry y="26" width="300" height="54" as="geometry" />
        </mxCell>
        <mxCell id="zkfFHV4jXpPFQw0GAbJ--9" value="" style="line;html=1;strokeWidth=1;align=left;verticalAlign=middle;spacingTop=-1;spacingLeft=3;spacingRight=3;rotatable=0;labelPosition=right;points=[];portConstraint=eastwest;" parent="zkfFHV4jXpPFQw0GAbJ--6" vertex="1">
          <mxGeometry y="80" width="300" height="8" as="geometry" />
        </mxCell>
        <mxCell id="zkfFHV4jXpPFQw0GAbJ--11" value="+ Electronics(brand:String, warrantlyPeriod:int)&#xa;+ setBrand(brand:String):void&#xa;+ setWarrantlyPeriod(warrantlyPeriod:int):void&#xa;+ getBrand():String&#xa;+ getWarrantlyPeriod():int" style="text;align=left;verticalAlign=top;spacingLeft=4;spacingRight=4;overflow=hidden;rotatable=0;points=[[0,0.5],[1,0.5]];portConstraint=eastwest;" parent="zkfFHV4jXpPFQw0GAbJ--6" vertex="1">
          <mxGeometry y="88" width="300" height="112" as="geometry" />
        </mxCell>
        <mxCell id="zkfFHV4jXpPFQw0GAbJ--12" value="" style="endArrow=block;endSize=10;endFill=0;shadow=0;strokeWidth=1;rounded=0;edgeStyle=elbowEdgeStyle;elbow=vertical;" parent="WIyWlLk6GJQsqaUBKTNV-1" source="zkfFHV4jXpPFQw0GAbJ--6" target="zkfFHV4jXpPFQw0GAbJ--0" edge="1">
          <mxGeometry width="160" relative="1" as="geometry">
            <mxPoint x="200" y="203" as="sourcePoint" />
            <mxPoint x="200" y="203" as="targetPoint" />
          </mxGeometry>
        </mxCell>
        <mxCell id="zkfFHV4jXpPFQw0GAbJ--13" value="Clothing" style="swimlane;fontStyle=1;align=center;verticalAlign=top;childLayout=stackLayout;horizontal=1;startSize=26;horizontalStack=0;resizeParent=1;resizeLast=0;collapsible=1;marginBottom=0;rounded=0;shadow=0;strokeWidth=1;" parent="WIyWlLk6GJQsqaUBKTNV-1" vertex="1">
          <mxGeometry x="500" y="360" width="230" height="180" as="geometry">
            <mxRectangle x="340" y="380" width="170" height="26" as="alternateBounds" />
          </mxGeometry>
        </mxCell>
        <mxCell id="IvHTnjGUTUcW3ZUswQTn-0" value="- size:int&lt;br&gt;- colour:String" style="text;html=1;align=left;verticalAlign=middle;resizable=0;points=[];autosize=1;strokeColor=none;fillColor=none;" parent="zkfFHV4jXpPFQw0GAbJ--13" vertex="1">
          <mxGeometry y="26" width="230" height="40" as="geometry" />
        </mxCell>
        <mxCell id="zkfFHV4jXpPFQw0GAbJ--15" value="" style="line;html=1;strokeWidth=1;align=left;verticalAlign=middle;spacingTop=-1;spacingLeft=3;spacingRight=3;rotatable=0;labelPosition=right;points=[];portConstraint=eastwest;" parent="zkfFHV4jXpPFQw0GAbJ--13" vertex="1">
          <mxGeometry y="66" width="230" height="8" as="geometry" />
        </mxCell>
        <mxCell id="pWiLgG27CMzLnG2gOhwh-0" value="+ Clothing(int:size, String:colour)&lt;br&gt;+ setSize(size:int):void&lt;br&gt;+ setColor(color:String):void&lt;br&gt;+ getSize():int&lt;br&gt;+ getColor():String" style="text;html=1;align=left;verticalAlign=middle;resizable=0;points=[];autosize=1;strokeColor=none;fillColor=none;" parent="zkfFHV4jXpPFQw0GAbJ--13" vertex="1">
          <mxGeometry y="74" width="230" height="84" as="geometry" />
        </mxCell>
        <mxCell id="zkfFHV4jXpPFQw0GAbJ--16" value="" style="endArrow=block;endSize=10;endFill=0;shadow=0;strokeWidth=1;rounded=0;edgeStyle=elbowEdgeStyle;elbow=vertical;" parent="WIyWlLk6GJQsqaUBKTNV-1" source="zkfFHV4jXpPFQw0GAbJ--13" target="zkfFHV4jXpPFQw0GAbJ--0" edge="1">
          <mxGeometry width="160" relative="1" as="geometry">
            <mxPoint x="210" y="373" as="sourcePoint" />
            <mxPoint x="310" y="271" as="targetPoint" />
          </mxGeometry>
        </mxCell>
        <mxCell id="pWiLgG27CMzLnG2gOhwh-1" value="User" style="swimlane;fontStyle=1;align=center;verticalAlign=top;childLayout=stackLayout;horizontal=1;startSize=26;horizontalStack=0;resizeParent=1;resizeLast=0;collapsible=1;marginBottom=0;rounded=0;shadow=0;strokeWidth=1;" parent="WIyWlLk6GJQsqaUBKTNV-1" vertex="1">
          <mxGeometry x="-736" y="373" width="300" height="220" as="geometry">
            <mxRectangle x="130" y="380" width="160" height="26" as="alternateBounds" />
          </mxGeometry>
        </mxCell>
        <mxCell id="pWiLgG27CMzLnG2gOhwh-2" value="- userName:String&#xa;- password:String" style="text;align=left;verticalAlign=top;spacingLeft=4;spacingRight=4;overflow=hidden;rotatable=0;points=[[0,0.5],[1,0.5]];portConstraint=eastwest;" parent="pWiLgG27CMzLnG2gOhwh-1" vertex="1">
          <mxGeometry y="26" width="300" height="54" as="geometry" />
        </mxCell>
        <mxCell id="pWiLgG27CMzLnG2gOhwh-3" value="" style="line;html=1;strokeWidth=1;align=left;verticalAlign=middle;spacingTop=-1;spacingLeft=3;spacingRight=3;rotatable=0;labelPosition=right;points=[];portConstraint=eastwest;" parent="pWiLgG27CMzLnG2gOhwh-1" vertex="1">
          <mxGeometry y="80" width="300" height="8" as="geometry" />
        </mxCell>
        <mxCell id="pWiLgG27CMzLnG2gOhwh-4" value="+ User(userName:String, password:String)&#xa;+ setUserName(userName:String):void&#xa;+ setPassword(password:int):void&#xa;+ getUserName():String&#xa;+ getPassword():int" style="text;align=left;verticalAlign=top;spacingLeft=4;spacingRight=4;overflow=hidden;rotatable=0;points=[[0,0.5],[1,0.5]];portConstraint=eastwest;" parent="pWiLgG27CMzLnG2gOhwh-1" vertex="1">
          <mxGeometry y="88" width="300" height="112" as="geometry" />
        </mxCell>
        <mxCell id="pWiLgG27CMzLnG2gOhwh-5" value="ShoppingCart" style="swimlane;fontStyle=1;align=center;verticalAlign=top;childLayout=stackLayout;horizontal=1;startSize=26;horizontalStack=0;resizeParent=1;resizeLast=0;collapsible=1;marginBottom=0;rounded=0;shadow=0;strokeWidth=1;" parent="WIyWlLk6GJQsqaUBKTNV-1" vertex="1">
          <mxGeometry x="-727" y="32" width="300" height="220" as="geometry">
            <mxRectangle x="130" y="380" width="160" height="26" as="alternateBounds" />
          </mxGeometry>
        </mxCell>
        <mxCell id="pWiLgG27CMzLnG2gOhwh-6" value="- listOfProducts:String&#xa;" style="text;align=left;verticalAlign=top;spacingLeft=4;spacingRight=4;overflow=hidden;rotatable=0;points=[[0,0.5],[1,0.5]];portConstraint=eastwest;" parent="pWiLgG27CMzLnG2gOhwh-5" vertex="1">
          <mxGeometry y="26" width="300" height="54" as="geometry" />
        </mxCell>
        <mxCell id="pWiLgG27CMzLnG2gOhwh-7" value="" style="line;html=1;strokeWidth=1;align=left;verticalAlign=middle;spacingTop=-1;spacingLeft=3;spacingRight=3;rotatable=0;labelPosition=right;points=[];portConstraint=eastwest;" parent="pWiLgG27CMzLnG2gOhwh-5" vertex="1">
          <mxGeometry y="80" width="300" height="8" as="geometry" />
        </mxCell>
        <mxCell id="pWiLgG27CMzLnG2gOhwh-8" value="+ ShoppingCart(listOfProducts:String)&#xa;+ setListOfProducts(listOfProducts:String):void&#xa;+ getListOfProducts():String&#xa;+ addProducts():void&#xa;+ removeProducts():void&#xa;+ totalCost():double&#xa;" style="text;align=left;verticalAlign=top;spacingLeft=4;spacingRight=4;overflow=hidden;rotatable=0;points=[[0,0.5],[1,0.5]];portConstraint=eastwest;" parent="pWiLgG27CMzLnG2gOhwh-5" vertex="1">
          <mxGeometry y="88" width="300" height="112" as="geometry" />
        </mxCell>
        <mxCell id="pWiLgG27CMzLnG2gOhwh-9" value="WestminsterShoppingManager" style="swimlane;fontStyle=1;align=center;verticalAlign=top;childLayout=stackLayout;horizontal=1;startSize=26;horizontalStack=0;resizeParent=1;resizeLast=0;collapsible=1;marginBottom=0;rounded=0;shadow=0;strokeWidth=1;" parent="WIyWlLk6GJQsqaUBKTNV-1" vertex="1">
          <mxGeometry x="-311" y="-88" width="300" height="220" as="geometry">
            <mxRectangle x="130" y="380" width="160" height="26" as="alternateBounds" />
          </mxGeometry>
        </mxCell>
        <mxCell id="pWiLgG27CMzLnG2gOhwh-10" value="+ Max_products:int&#xa;- systemCart:int" style="text;align=left;verticalAlign=top;spacingLeft=4;spacingRight=4;overflow=hidden;rotatable=0;points=[[0,0.5],[1,0.5]];portConstraint=eastwest;" parent="pWiLgG27CMzLnG2gOhwh-9" vertex="1">
          <mxGeometry y="26" width="300" height="54" as="geometry" />
        </mxCell>
        <mxCell id="pWiLgG27CMzLnG2gOhwh-11" value="" style="line;html=1;strokeWidth=1;align=left;verticalAlign=middle;spacingTop=-1;spacingLeft=3;spacingRight=3;rotatable=0;labelPosition=right;points=[];portConstraint=eastwest;" parent="pWiLgG27CMzLnG2gOhwh-9" vertex="1">
          <mxGeometry y="80" width="300" height="8" as="geometry" />
        </mxCell>
        <mxCell id="pWiLgG27CMzLnG2gOhwh-12" value="+ addProdcuts():void&#xa;+ deleteProduct():void&#xa;+ printProduct():void&#xa;+ save():void&#xa;+ load_file():void&#xa;+ displayMenu():void&#xa;" style="text;align=left;verticalAlign=top;spacingLeft=4;spacingRight=4;overflow=hidden;rotatable=0;points=[[0,0.5],[1,0.5]];portConstraint=eastwest;" parent="pWiLgG27CMzLnG2gOhwh-9" vertex="1">
          <mxGeometry y="88" width="300" height="112" as="geometry" />
        </mxCell>
        <mxCell id="IvHTnjGUTUcW3ZUswQTn-1" value="&lt;&lt;interface&gt;&gt;&#xa;ShoppingManager" style="swimlane;fontStyle=1;align=center;verticalAlign=top;childLayout=stackLayout;horizontal=1;startSize=40;horizontalStack=0;resizeParent=1;resizeLast=0;collapsible=1;marginBottom=0;rounded=0;shadow=0;strokeWidth=1;" parent="WIyWlLk6GJQsqaUBKTNV-1" vertex="1">
          <mxGeometry x="-316" y="261" width="300" height="220" as="geometry">
            <mxRectangle x="130" y="380" width="160" height="26" as="alternateBounds" />
          </mxGeometry>
        </mxCell>
        <mxCell id="IvHTnjGUTUcW3ZUswQTn-3" value="" style="line;html=1;strokeWidth=1;align=left;verticalAlign=middle;spacingTop=-1;spacingLeft=3;spacingRight=3;rotatable=0;labelPosition=right;points=[];portConstraint=eastwest;" parent="IvHTnjGUTUcW3ZUswQTn-1" vertex="1">
          <mxGeometry y="40" width="300" height="8" as="geometry" />
        </mxCell>
        <mxCell id="IvHTnjGUTUcW3ZUswQTn-4" value="+ addProduct():void&#xa;+ deleteProduct:void&#xa;+ printProduct:void&#xa;+ save():void&#xa;" style="text;align=left;verticalAlign=top;spacingLeft=4;spacingRight=4;overflow=hidden;rotatable=0;points=[[0,0.5],[1,0.5]];portConstraint=eastwest;" parent="IvHTnjGUTUcW3ZUswQTn-1" vertex="1">
          <mxGeometry y="48" width="300" height="112" as="geometry" />
        </mxCell>
        <mxCell id="ThVFfIm0Pg27WEHm3191-0" value="" style="endArrow=none;html=1;rounded=0;" edge="1" parent="WIyWlLk6GJQsqaUBKTNV-1">
          <mxGeometry width="50" height="50" relative="1" as="geometry">
            <mxPoint x="-572" y="371" as="sourcePoint" />
            <mxPoint x="-572" y="252" as="targetPoint" />
          </mxGeometry>
        </mxCell>
        <mxCell id="ThVFfIm0Pg27WEHm3191-1" value="" style="endArrow=none;html=1;rounded=0;" edge="1" parent="WIyWlLk6GJQsqaUBKTNV-1">
          <mxGeometry width="50" height="50" relative="1" as="geometry">
            <mxPoint x="-156.51999999999998" y="172" as="sourcePoint" />
            <mxPoint x="-159" y="260" as="targetPoint" />
          </mxGeometry>
        </mxCell>
        <mxCell id="ThVFfIm0Pg27WEHm3191-2" value="" style="rhombus;whiteSpace=wrap;html=1;fillColor=#050505;" vertex="1" parent="WIyWlLk6GJQsqaUBKTNV-1">
          <mxGeometry x="-174" y="132" width="34" height="40" as="geometry" />
        </mxCell>
      </root>
    </mxGraphModel>
  </diagram>
</mxfile>
